<mxfile host="Electron" agent="Mozilla/5.0 (Windows NT 10.0; Win64; x64) AppleWebKit/537.36 (KHTML, like Gecko) draw.io/26.0.4 Chrome/128.0.6613.186 Electron/32.2.5 Safari/537.36" version="26.0.4">
  <diagram name="Page-1" id="yCBWj7Kohvu57Di1Gdh3">
    <mxGraphModel dx="724" dy="434" grid="1" gridSize="10" guides="1" tooltips="1" connect="1" arrows="1" fold="1" page="1" pageScale="1" pageWidth="850" pageHeight="1100" math="0" shadow="0">
      <root>
        <mxCell id="0" />
        <mxCell id="1" parent="0" />
        <mxCell id="sD6nBjYEzO7qsevkRshW-12" value="&lt;div style=&quot;text-align: center;&quot;&gt;&lt;b style=&quot;&quot;&gt;&lt;font style=&quot;font-size: 13px;&quot;&gt;FPGA Core&lt;/font&gt;&lt;/b&gt;&lt;br&gt;&lt;/div&gt;" style="rounded=0;whiteSpace=wrap;html=1;align=right;verticalAlign=top;" parent="1" vertex="1">
          <mxGeometry x="268" y="320" width="282" height="110" as="geometry" />
        </mxCell>
        <mxCell id="sD6nBjYEzO7qsevkRshW-3" value="&lt;font style=&quot;font-size: 10px;&quot;&gt;Cryptograph Core (AES, ECC, other encryption/decryption logic)&lt;/font&gt;" style="rounded=0;whiteSpace=wrap;html=1;" parent="1" vertex="1">
          <mxGeometry x="329" y="350" width="160" height="50" as="geometry" />
        </mxCell>
        <mxCell id="sD6nBjYEzO7qsevkRshW-6" value="On-chip Memory" style="shape=internalStorage;whiteSpace=wrap;html=1;backgroundOutline=1;" parent="1" vertex="1">
          <mxGeometry x="110" y="336.5" width="90" height="80" as="geometry" />
        </mxCell>
        <mxCell id="sD6nBjYEzO7qsevkRshW-7" value="&lt;font style=&quot;font-size: 10px;&quot;&gt;SPI/UART/GPIO&lt;/font&gt;" style="ellipse;whiteSpace=wrap;html=1;" parent="1" vertex="1">
          <mxGeometry x="680" y="333.5" width="90" height="83" as="geometry" />
        </mxCell>
        <mxCell id="sD6nBjYEzO7qsevkRshW-8" value="Control Unit" style="rounded=0;whiteSpace=wrap;html=1;" parent="1" vertex="1">
          <mxGeometry x="340" y="200" width="120" height="60" as="geometry" />
        </mxCell>
        <mxCell id="sD6nBjYEzO7qsevkRshW-11" value="Clock Management" style="rounded=1;whiteSpace=wrap;html=1;" parent="1" vertex="1">
          <mxGeometry x="340" y="480" width="120" height="60" as="geometry" />
        </mxCell>
        <mxCell id="sD6nBjYEzO7qsevkRshW-13" value="&lt;font style=&quot;font-size: 9px;&quot;&gt;Actor&lt;/font&gt;" style="shape=umlActor;verticalLabelPosition=bottom;verticalAlign=top;html=1;outlineConnect=0;" parent="1" vertex="1">
          <mxGeometry x="790" y="350" width="10" height="30" as="geometry" />
        </mxCell>
        <mxCell id="sD6nBjYEzO7qsevkRshW-16" value="" style="endArrow=classic;html=1;rounded=0;exitX=0.111;exitY=0.175;exitDx=0;exitDy=0;exitPerimeter=0;" parent="1" source="sD6nBjYEzO7qsevkRshW-7" edge="1">
          <mxGeometry width="50" height="50" relative="1" as="geometry">
            <mxPoint x="677" y="348" as="sourcePoint" />
            <mxPoint x="550" y="348" as="targetPoint" />
          </mxGeometry>
        </mxCell>
        <mxCell id="sD6nBjYEzO7qsevkRshW-17" value="" style="endArrow=classic;html=1;rounded=0;exitX=-0.013;exitY=0.536;exitDx=0;exitDy=0;exitPerimeter=0;" parent="1" source="sD6nBjYEzO7qsevkRshW-7" edge="1">
          <mxGeometry width="50" height="50" relative="1" as="geometry">
            <mxPoint x="677" y="378" as="sourcePoint" />
            <mxPoint x="552" y="377.58000000000004" as="targetPoint" />
          </mxGeometry>
        </mxCell>
        <mxCell id="sD6nBjYEzO7qsevkRshW-18" value="" style="endArrow=classic;html=1;rounded=0;entryX=0;entryY=1;entryDx=0;entryDy=0;" parent="1" target="sD6nBjYEzO7qsevkRshW-7" edge="1">
          <mxGeometry width="50" height="50" relative="1" as="geometry">
            <mxPoint x="550" y="404" as="sourcePoint" />
            <mxPoint x="677" y="404" as="targetPoint" />
          </mxGeometry>
        </mxCell>
        <mxCell id="sD6nBjYEzO7qsevkRshW-20" value="&lt;font style=&quot;font-size: 10px;&quot;&gt;Key Data&lt;/font&gt;" style="text;html=1;align=center;verticalAlign=middle;resizable=0;points=[];autosize=1;strokeColor=none;fillColor=none;" parent="1" vertex="1">
          <mxGeometry x="560" y="354" width="60" height="30" as="geometry" />
        </mxCell>
        <mxCell id="sD6nBjYEzO7qsevkRshW-21" value="&lt;span style=&quot;font-size: 10px;&quot;&gt;Encrypted Data&lt;/span&gt;" style="text;html=1;align=center;verticalAlign=middle;resizable=0;points=[];autosize=1;strokeColor=none;fillColor=none;" parent="1" vertex="1">
          <mxGeometry x="559" y="380" width="90" height="30" as="geometry" />
        </mxCell>
        <mxCell id="sD6nBjYEzO7qsevkRshW-24" value="" style="shape=flexArrow;endArrow=classic;startArrow=classic;html=1;rounded=0;" parent="1" edge="1">
          <mxGeometry width="100" height="100" relative="1" as="geometry">
            <mxPoint x="198" y="374.63" as="sourcePoint" />
            <mxPoint x="268" y="374.63" as="targetPoint" />
          </mxGeometry>
        </mxCell>
        <mxCell id="sD6nBjYEzO7qsevkRshW-30" style="edgeStyle=orthogonalEdgeStyle;rounded=0;orthogonalLoop=1;jettySize=auto;html=1;exitX=0.5;exitY=1;exitDx=0;exitDy=0;entryX=0.469;entryY=-0.017;entryDx=0;entryDy=0;entryPerimeter=0;" parent="1" source="sD6nBjYEzO7qsevkRshW-8" target="sD6nBjYEzO7qsevkRshW-12" edge="1">
          <mxGeometry relative="1" as="geometry" />
        </mxCell>
        <mxCell id="sD6nBjYEzO7qsevkRshW-31" value="" style="endArrow=classic;html=1;rounded=0;" parent="1" edge="1">
          <mxGeometry width="50" height="50" relative="1" as="geometry">
            <mxPoint x="399.63" y="480" as="sourcePoint" />
            <mxPoint x="399.63" y="430" as="targetPoint" />
          </mxGeometry>
        </mxCell>
        <mxCell id="sD6nBjYEzO7qsevkRshW-32" value="" style="edgeStyle=segmentEdgeStyle;endArrow=classic;html=1;curved=0;rounded=0;endSize=8;startSize=8;entryX=0.563;entryY=1.019;entryDx=0;entryDy=0;entryPerimeter=0;" parent="1" target="sD6nBjYEzO7qsevkRshW-7" edge="1">
          <mxGeometry width="50" height="50" relative="1" as="geometry">
            <mxPoint x="460" y="510" as="sourcePoint" />
            <mxPoint x="510" y="460" as="targetPoint" />
          </mxGeometry>
        </mxCell>
        <mxCell id="sD6nBjYEzO7qsevkRshW-33" value="" style="edgeStyle=segmentEdgeStyle;endArrow=classic;html=1;curved=0;rounded=0;endSize=8;startSize=8;exitX=0;exitY=0.75;exitDx=0;exitDy=0;entryX=0.452;entryY=1.002;entryDx=0;entryDy=0;entryPerimeter=0;" parent="1" source="sD6nBjYEzO7qsevkRshW-11" target="sD6nBjYEzO7qsevkRshW-6" edge="1">
          <mxGeometry width="50" height="50" relative="1" as="geometry">
            <mxPoint x="100" y="520" as="sourcePoint" />
            <mxPoint x="150" y="470" as="targetPoint" />
            <Array as="points">
              <mxPoint x="340" y="510" />
              <mxPoint x="151" y="510" />
            </Array>
          </mxGeometry>
        </mxCell>
        <mxCell id="sD6nBjYEzO7qsevkRshW-34" value="" style="edgeStyle=segmentEdgeStyle;endArrow=classic;html=1;curved=0;rounded=0;endSize=8;startSize=8;exitX=0;exitY=0.5;exitDx=0;exitDy=0;entryX=0.5;entryY=0;entryDx=0;entryDy=0;" parent="1" source="sD6nBjYEzO7qsevkRshW-8" target="sD6nBjYEzO7qsevkRshW-6" edge="1">
          <mxGeometry width="50" height="50" relative="1" as="geometry">
            <mxPoint x="230" y="220" as="sourcePoint" />
            <mxPoint x="150" y="290" as="targetPoint" />
          </mxGeometry>
        </mxCell>
        <mxCell id="sD6nBjYEzO7qsevkRshW-35" value="" style="edgeStyle=segmentEdgeStyle;endArrow=classic;html=1;curved=0;rounded=0;endSize=8;startSize=8;exitX=1;exitY=0.5;exitDx=0;exitDy=0;exitPerimeter=0;entryX=0.5;entryY=0;entryDx=0;entryDy=0;" parent="1" source="sD6nBjYEzO7qsevkRshW-8" target="sD6nBjYEzO7qsevkRshW-7" edge="1">
          <mxGeometry width="50" height="50" relative="1" as="geometry">
            <mxPoint x="480" y="200" as="sourcePoint" />
            <mxPoint x="670" y="270" as="targetPoint" />
          </mxGeometry>
        </mxCell>
        <mxCell id="sD6nBjYEzO7qsevkRshW-39" value="&lt;span style=&quot;font-size: 10px;&quot;&gt;Plaintext&lt;/span&gt;" style="text;html=1;align=center;verticalAlign=middle;resizable=0;points=[];autosize=1;strokeColor=none;fillColor=none;" parent="1" vertex="1">
          <mxGeometry x="558" y="324" width="60" height="30" as="geometry" />
        </mxCell>
        <mxCell id="j_H0XKYK_5zf21kMnVFC-1" value="&lt;div style=&quot;&quot;&gt;&lt;b style=&quot;background-color: transparent; color: light-dark(rgb(0, 0, 0), rgb(255, 255, 255));&quot;&gt;&lt;span style=&quot;line-height: 107%;&quot;&gt;&lt;font style=&quot;font-size: 17px;&quot;&gt;Block Diagram of FPGA Design&lt;/font&gt;&lt;/span&gt;&lt;/b&gt;&lt;/div&gt;" style="text;html=1;align=center;verticalAlign=middle;resizable=0;points=[];autosize=1;strokeColor=none;fillColor=none;" vertex="1" parent="1">
          <mxGeometry x="278" y="560" width="280" height="30" as="geometry" />
        </mxCell>
      </root>
    </mxGraphModel>
  </diagram>
</mxfile>
